<svg width="20" height="20" viewBox="0 0 20 20" fill="none" xmlns="http://www.w3.org/2000/svg">
<path d="M9.99982 0C4.48582 0 -0.000183105 4.486 -0.000183105 10C-0.000183105 15.514 4.48582 20 9.99982 20C15.5138 20 19.9998 15.514 19.9998 10C19.9998 4.486 15.5138 0 9.99982 0ZM14.2498 10.75H10.7498V14.25C10.7498 14.6645 10.4138 15 9.99982 15C9.58582 15 9.24982 14.6645 9.24982 14.25V10.75H5.74982C5.33582 10.75 4.99982 10.4145 4.99982 10C4.99982 9.5855 5.33582 9.25 5.74982 9.25H9.24982V5.75C9.24982 5.3355 9.58582 5 9.99982 5C10.4138 5 10.7498 5.3355 10.7498 5.75V9.25H14.2498C14.6638 9.25 14.9998 9.5855 14.9998 10C14.9998 10.4145 14.6638 10.75 14.2498 10.75Z" fill="#637394"/>
</svg>
