<svg width="11" height="18" viewBox="0 0 11 18" fill="none" xmlns="http://www.w3.org/2000/svg">
<path d="M8.98028 0.490242C8.72048 0.497983 8.4739 0.606562 8.29278 0.792976L0.792776 8.29298C0.605311 8.48052 0.5 8.73484 0.5 9.00001C0.5 9.26518 0.605311 9.5195 0.792776 9.70704L8.29278 17.207C8.38492 17.303 8.49529 17.3796 8.61742 17.4324C8.73955 17.4852 8.87098 17.5131 9.00403 17.5145C9.13707 17.5158 9.26904 17.4906 9.39222 17.4403C9.5154 17.39 9.6273 17.3157 9.72138 17.2216C9.81546 17.1275 9.88982 17.0156 9.94011 16.8924C9.9904 16.7692 10.0156 16.6373 10.0143 16.5042C10.0129 16.3712 9.98501 16.2397 9.93223 16.1176C9.87944 15.9955 9.80282 15.8851 9.70684 15.793L2.91387 9.00001L9.70684 2.20704C9.85134 2.06658 9.95004 1.88574 9.99 1.68822C10.03 1.4907 10.0093 1.28571 9.93078 1.10013C9.85223 0.91454 9.71946 0.757011 9.54985 0.648182C9.38024 0.539353 9.18171 0.484302 8.98028 0.490242Z" fill="#637394"/>
</svg>
