<svg width="18" height="18" viewBox="0 0 18 18" fill="none" xmlns="http://www.w3.org/2000/svg">
<path d="M17.9998 4V3.25C17.9998 1.458 16.5418 0 14.7498 0H3.24982C1.45782 0 -0.000183105 1.458 -0.000183105 3.25V4H17.9998ZM-0.000183105 5.5V14.75C-0.000183105 16.542 1.45782 18 3.24982 18H14.7498C16.5418 18 17.9998 16.542 17.9998 14.75V5.5H-0.000183105ZM4.74982 15C4.05932 15 3.49982 14.4405 3.49982 13.75C3.49982 13.0595 4.05932 12.5 4.74982 12.5C5.44032 12.5 5.99982 13.0595 5.99982 13.75C5.99982 14.4405 5.44032 15 4.74982 15ZM4.74982 10.5C4.05932 10.5 3.49982 9.9405 3.49982 9.25C3.49982 8.5595 4.05932 8 4.74982 8C5.44032 8 5.99982 8.5595 5.99982 9.25C5.99982 9.9405 5.44032 10.5 4.74982 10.5ZM8.99982 15C8.30932 15 7.74982 14.4405 7.74982 13.75C7.74982 13.0595 8.30932 12.5 8.99982 12.5C9.69032 12.5 10.2498 13.0595 10.2498 13.75C10.2498 14.4405 9.69032 15 8.99982 15ZM8.99982 10.5C8.30932 10.5 7.74982 9.9405 7.74982 9.25C7.74982 8.5595 8.30932 8 8.99982 8C9.69032 8 10.2498 8.5595 10.2498 9.25C10.2498 9.9405 9.69032 10.5 8.99982 10.5ZM13.2498 10.5C12.5593 10.5 11.9998 9.9405 11.9998 9.25C11.9998 8.5595 12.5593 8 13.2498 8C13.9403 8 14.4998 8.5595 14.4998 9.25C14.4998 9.9405 13.9403 10.5 13.2498 10.5Z" fill="#637394"/>
</svg>
