<svg width="20" height="20" viewBox="0 0 20 20" fill="none" xmlns="http://www.w3.org/2000/svg">
<path d="M9.99982 0C4.49982 0 -0.000183105 4.5 -0.000183105 10C-0.000183105 15.5 4.49982 20 9.99982 20C15.4998 20 19.9998 15.5 19.9998 10C19.9998 4.5 15.4998 0 9.99982 0ZM13.7498 11.5H9.74982C9.34982 11.5 8.99982 11.15 8.99982 10.75V4.75C8.99982 4.35 9.34982 4 9.74982 4C10.1498 4 10.4998 4.35 10.4998 4.75V10H13.7498C14.1498 10 14.4998 10.35 14.4998 10.75C14.4998 11.15 14.1498 11.5 13.7498 11.5Z" fill="#637394"/>
</svg>
