<svg width="14" height="14" viewBox="0 0 14 14" fill="none" xmlns="http://www.w3.org/2000/svg">
<path d="M12.4911 0.485356C12.2268 0.491593 11.9758 0.602191 11.7928 0.792974L6.99984 5.58594L2.20687 0.792974C2.11357 0.697061 2.00197 0.620848 1.87867 0.568847C1.75538 0.516847 1.62291 0.490116 1.4891 0.490239C1.29025 0.490485 1.09599 0.550004 0.931128 0.661192C0.766268 0.77238 0.638297 0.93019 0.563561 1.11446C0.488825 1.29873 0.470718 1.5011 0.511553 1.69571C0.552387 1.89032 0.65031 2.06835 0.792811 2.20704L5.58578 7.00001L0.792811 11.793C0.696837 11.8851 0.620214 11.9955 0.567428 12.1176C0.514643 12.2397 0.486757 12.3712 0.485403 12.5042C0.48405 12.6373 0.509255 12.7692 0.559544 12.8924C0.609834 13.0156 0.684195 13.1275 0.778274 13.2216C0.872353 13.3157 0.984258 13.39 1.10744 13.4403C1.23061 13.4906 1.36259 13.5158 1.49563 13.5144C1.62867 13.5131 1.7601 13.4852 1.88223 13.4324C2.00436 13.3796 2.11473 13.303 2.20687 13.207L6.99984 8.41407L11.7928 13.207C11.885 13.303 11.9953 13.3796 12.1175 13.4324C12.2396 13.4852 12.371 13.5131 12.5041 13.5145C12.6371 13.5158 12.7691 13.4906 12.8923 13.4403C13.0154 13.39 13.1273 13.3157 13.2214 13.2216C13.3155 13.1275 13.3899 13.0156 13.4401 12.8924C13.4904 12.7692 13.5156 12.6373 13.5143 12.5042C13.5129 12.3712 13.485 12.2397 13.4323 12.1176C13.3795 11.9955 13.3028 11.8851 13.2069 11.793L8.4139 7.00001L13.2069 2.20704C13.3524 2.0675 13.4523 1.88725 13.4936 1.68992C13.5349 1.49258 13.5155 1.28738 13.4382 1.10123C13.3608 0.915076 13.2289 0.756658 13.0599 0.646754C12.8909 0.53685 12.6926 0.480592 12.4911 0.485356Z" fill="#637394"/>
</svg>
