<svg width="22" height="22" viewBox="0 0 22 22" fill="none" xmlns="http://www.w3.org/2000/svg">
<path d="M19.9803 0.990242C19.7205 0.997983 19.4739 1.10656 19.2928 1.29298L12.9998 7.58595V3.00001C13.0016 2.8663 12.9766 2.73359 12.9263 2.60971C12.8759 2.48584 12.8012 2.37332 12.7066 2.27881C12.612 2.1843 12.4995 2.10973 12.3755 2.05949C12.2516 2.00925 12.1189 1.98438 11.9852 1.98634C11.7201 1.99022 11.4675 2.09917 11.2827 2.28924C11.0979 2.47931 10.9962 2.73496 10.9998 3.00001V10C10.9998 10.2652 11.1052 10.5196 11.2927 10.7071C11.4803 10.8946 11.7346 11 11.9998 11H18.9998C19.1323 11.0019 19.2639 10.9774 19.3869 10.928C19.5098 10.8786 19.6217 10.8052 19.7161 10.7122C19.8105 10.6191 19.8854 10.5083 19.9366 10.386C19.9877 10.2637 20.0141 10.1325 20.0141 10C20.0141 9.86748 19.9877 9.73628 19.9366 9.61402C19.8854 9.49176 19.8105 9.38089 19.7161 9.28785C19.6217 9.1948 19.5098 9.12144 19.3869 9.07203C19.2639 9.02261 19.1323 8.99813 18.9998 9.00001H14.4139L20.7068 2.70704C20.8513 2.56658 20.95 2.38574 20.99 2.18822C21.03 1.9907 21.0093 1.78571 20.9308 1.60013C20.8522 1.41454 20.7195 1.25701 20.5499 1.14818C20.3802 1.03935 20.1817 0.984302 19.9803 0.990242ZM2.49981 11.5C2.3673 11.4981 2.23573 11.5226 2.11277 11.572C1.9898 11.6214 1.87788 11.6948 1.78351 11.7878C1.68914 11.8809 1.6142 11.9918 1.56305 12.114C1.51191 12.2363 1.48557 12.3675 1.48557 12.5C1.48557 12.6325 1.51191 12.7637 1.56305 12.886C1.6142 13.0083 1.68914 13.1191 1.78351 13.2122C1.87788 13.3052 1.9898 13.3786 2.11277 13.428C2.23573 13.4774 2.3673 13.5019 2.49981 13.5H7.08575L1.29278 19.293C1.1968 19.3851 1.12018 19.4955 1.0674 19.6176C1.01461 19.7397 0.986726 19.8712 0.985373 20.0042C0.984019 20.1373 1.00923 20.2692 1.05951 20.3924C1.1098 20.5156 1.18417 20.6275 1.27824 20.7216C1.37232 20.8157 1.48423 20.89 1.6074 20.9403C1.73058 20.9906 1.86255 21.0158 1.9956 21.0144C2.12864 21.0131 2.26007 20.9852 2.3822 20.9324C2.50433 20.8796 2.61469 20.803 2.70684 20.707L8.49981 14.9141V19.5C8.49794 19.6325 8.52242 19.7641 8.57183 19.8871C8.62124 20.01 8.69461 20.1219 8.78765 20.2163C8.88069 20.3107 8.99157 20.3856 9.11382 20.4368C9.23608 20.4879 9.36728 20.5142 9.49981 20.5142C9.63234 20.5142 9.76354 20.4879 9.8858 20.4368C10.0081 20.3856 10.1189 20.3107 10.212 20.2163C10.305 20.1219 10.3784 20.01 10.4278 19.8871C10.4772 19.7641 10.5017 19.6325 10.4998 19.5V12.5C10.4998 12.2348 10.3944 11.9805 10.2069 11.7929C10.0194 11.6054 9.76502 11.5 9.49981 11.5H2.49981Z" fill="#637394"/>
</svg>
