<svg width="16" height="12" viewBox="0 0 16 12" fill="none" xmlns="http://www.w3.org/2000/svg">
<path d="M13.995 0.000434754C13.7352 0.00817588 13.4886 0.116755 13.3075 0.303169L5.01449 8.59614L1.72152 5.30317C1.62937 5.2072 1.519 5.13057 1.39688 5.07779C1.27475 5.025 1.14331 4.99712 1.01027 4.99576C0.877233 4.99441 0.74526 5.01962 0.622083 5.06991C0.498906 5.1202 0.387001 5.19456 0.292923 5.28864C0.198844 5.38271 0.124483 5.49462 0.0741934 5.6178C0.0239042 5.74097 -0.00130169 5.87295 5.17524e-05 6.00599C0.0014052 6.13903 0.0292908 6.27046 0.0820755 6.39259C0.13486 6.51472 0.211483 6.62509 0.307456 6.71723L4.30746 10.7172C4.495 10.9047 4.74931 11.01 5.01449 11.01C5.27966 11.01 5.53397 10.9047 5.72152 10.7172L14.7215 1.71723C14.866 1.57677 14.9647 1.39593 15.0047 1.19841C15.0446 1.00089 15.024 0.795905 14.9454 0.610319C14.8669 0.424733 14.7341 0.267204 14.5645 0.158375C14.3949 0.0495462 14.1964 -0.00550556 13.995 0.000434754Z" fill="#637394"/>
</svg>
