<svg width="18" height="18" viewBox="0 0 18 18" fill="none" xmlns="http://www.w3.org/2000/svg">
<path d="M0.545317 16.7825C0.555317 16.816 0.562817 16.85 0.576317 16.8825C0.590317 16.917 0.609817 16.948 0.627817 16.9805C0.641317 17.005 0.652317 17.031 0.668317 17.0545C0.741817 17.1645 0.835817 17.2585 0.945817 17.332C0.969817 17.348 0.995317 17.3585 1.01982 17.3725C1.05232 17.3905 1.08332 17.41 1.11782 17.424C1.15032 17.4375 1.18432 17.445 1.21782 17.455C1.24682 17.4635 1.27432 17.4745 1.30432 17.4805C1.36882 17.493 1.43432 17.5 1.49982 17.5H8.49982C9.05182 17.5 9.49982 17.052 9.49982 16.5C9.49982 15.948 9.05182 15.5 8.49982 15.5H3.91382L15.4998 3.914V8.5C15.4998 9.052 15.9478 9.5 16.4998 9.5C17.0518 9.5 17.4998 9.052 17.4998 8.5V1.5C17.4998 1.4345 17.4928 1.369 17.4803 1.304C17.4743 1.274 17.4633 1.2465 17.4548 1.2175C17.4448 1.184 17.4373 1.15 17.4238 1.1175C17.4098 1.083 17.3903 1.052 17.3723 1.0195C17.3588 0.995 17.3478 0.969 17.3318 0.9455C17.2583 0.8355 17.1643 0.7415 17.0543 0.668C17.0308 0.652 17.0048 0.6415 16.9803 0.6275C16.9478 0.6095 16.9168 0.59 16.8823 0.576C16.8498 0.5625 16.8158 0.555 16.7823 0.545C16.7533 0.5365 16.7258 0.5255 16.6958 0.5195C16.6308 0.507 16.5653 0.5 16.4998 0.5H9.49982C8.94782 0.5 8.49982 0.948 8.49982 1.5C8.49982 2.052 8.94782 2.5 9.49982 2.5H14.0858L2.49982 14.086V9.5C2.49982 8.948 2.05182 8.5 1.49982 8.5C0.947817 8.5 0.499817 8.948 0.499817 9.5V16.5C0.499817 16.5655 0.506817 16.631 0.519317 16.696C0.525317 16.726 0.536817 16.7535 0.545317 16.7825Z" fill="#637394"/>
</svg>
