<svg width="20" height="18" viewBox="0 0 20 18" fill="none" xmlns="http://www.w3.org/2000/svg">
<path d="M1.17632 17.4965C1.20082 17.499 1.22582 17.5 1.25032 17.5C1.60432 17.5 1.91432 17.2505 1.98532 16.897C3.03432 11.649 8.50382 11.2755 10.9998 11.3915V15.25C10.9998 15.553 11.1823 15.8265 11.4628 15.943C11.7428 16.0585 12.0653 15.995 12.2803 15.7805L19.2803 8.7805C19.5733 8.488 19.5733 8.0125 19.2803 7.72L12.2803 0.72C12.0658 0.5055 11.7433 0.441 11.4628 0.5575C11.1823 0.673 10.9998 0.9465 10.9998 1.25V5.0975C8.18332 5.4655 0.499817 7.3335 0.499817 16.75C0.499817 17.1355 0.792317 17.4585 1.17632 17.4965Z" fill="#637394"/>
</svg>
