<svg width="20" height="20" viewBox="0 0 20 20" fill="none" xmlns="http://www.w3.org/2000/svg">
<path d="M9.99982 -0.000976562C4.48582 -0.000976562 -0.000183105 4.48502 -0.000183105 9.99902C-0.000183105 11.5925 0.385528 13.1715 1.11603 14.585L0.0457153 18.4141C-0.0747847 18.8481 0.0480044 19.3153 0.367004 19.6338C0.604504 19.8713 0.92477 20 1.25177 20C1.36427 20 1.47573 19.9851 1.58673 19.9541L5.41779 18.8848C6.83129 19.6148 8.40832 19.999 9.99982 19.999C15.5138 19.999 19.9998 15.513 19.9998 9.99902C19.9998 4.48502 15.5138 -0.000976562 9.99982 -0.000976562ZM8.24982 4.5H11.2498C11.6638 4.5 11.9998 4.8355 11.9998 5.25V6.5C11.9998 7.548 11.5359 8.53172 10.7274 9.19922C10.5879 9.31472 10.4188 9.37109 10.2508 9.37109C10.0343 9.37109 9.81969 9.27813 9.67169 9.09863C9.40769 8.77913 9.45278 8.30697 9.77228 8.04297C10.2348 7.66147 10.4998 7.099 10.4998 6.5V6H8.24982C7.83582 6 7.49982 5.6645 7.49982 5.25C7.49982 4.8355 7.83582 4.5 8.24982 4.5ZM13.7498 4.5C14.1638 4.5 14.4998 4.8355 14.4998 5.25V7H15.2498C15.6638 7 15.9998 7.3355 15.9998 7.75C15.9998 8.1645 15.6638 8.5 15.2498 8.5H14.4998V11.75C14.4998 12.1645 14.1638 12.5 13.7498 12.5C13.3358 12.5 12.9998 12.1645 12.9998 11.75V5.25C12.9998 4.8355 13.3358 4.5 13.7498 4.5ZM7.24982 7C7.56032 7 7.83851 7.19097 7.95001 7.48047L10.45 13.9805C10.5985 14.3675 10.4054 14.8017 10.0184 14.9502C9.92987 14.9842 9.83982 15 9.74982 15C9.44832 15 9.16412 14.8166 9.04962 14.5186L8.46564 13H6.034L5.45001 14.5195C5.30101 14.9065 4.86576 15.0992 4.48126 14.9502C4.09476 14.8017 3.90112 14.3679 4.04962 13.9814L6.54962 7.48145C6.66112 7.19145 6.93932 7 7.24982 7ZM7.24982 9.83984L6.61115 11.5H7.88849L7.24982 9.83984Z" fill="#637394"/>
</svg>
