<svg width="18" height="20" viewBox="0 0 18 20" fill="none" xmlns="http://www.w3.org/2000/svg">
<path d="M8.99982 0C4.31282 0 0.499817 3.813 0.499817 8.5C0.499817 10.518 1.22432 12.4765 2.54632 14.024C2.69732 14.1955 6.25982 18.2435 7.44982 19.378C7.88432 19.7925 8.44182 20 8.99982 20C9.55782 20 10.1153 19.7925 10.5503 19.378C11.9338 18.0585 15.3123 14.1855 15.4603 14.0155C16.7753 12.4765 17.4998 10.518 17.4998 8.5C17.4998 3.813 13.6868 0 8.99982 0ZM8.99982 11C7.61932 11 6.49982 9.8805 6.49982 8.5C6.49982 7.1195 7.61932 6 8.99982 6C10.3803 6 11.4998 7.1195 11.4998 8.5C11.4998 9.8805 10.3803 11 8.99982 11Z" fill="#637394"/>
</svg>
