<svg width="19" height="19" viewBox="0 0 19 19" fill="none" xmlns="http://www.w3.org/2000/svg">
<path d="M7.24982 0C3.25759 0 -0.000183105 3.25778 -0.000183105 7.25C-0.000183105 11.2422 3.25759 14.5 7.24982 14.5C8.8864 14.5 10.3943 13.9465 11.6102 13.0254L16.2928 17.707C16.3849 17.803 16.4953 17.8796 16.6174 17.9324C16.7396 17.9852 16.871 18.0131 17.004 18.0144C17.1371 18.0158 17.269 17.9906 17.3922 17.9403C17.5154 17.89 17.6273 17.8157 17.7214 17.7216C17.8155 17.6275 17.8898 17.5156 17.9401 17.3924C17.9904 17.2692 18.0156 17.1373 18.0143 17.0042C18.0129 16.8712 17.985 16.7397 17.9322 16.6176C17.8794 16.4955 17.8028 16.3851 17.7068 16.293L13.0252 11.6104C13.9463 10.3945 14.4998 8.88658 14.4998 7.25C14.4998 3.25778 11.242 0 7.24982 0ZM7.24982 2C10.1612 2 12.4998 4.33866 12.4998 7.25C12.4998 8.64786 11.9568 9.9103 11.074 10.8486C10.9881 10.9108 10.9126 10.9863 10.8504 11.0723C9.91187 11.9562 8.64867 12.5 7.24982 12.5C4.33847 12.5 1.99982 10.1613 1.99982 7.25C1.99982 4.33866 4.33847 2 7.24982 2Z" fill="#637394"/>
</svg>
