<svg width="14" height="16" viewBox="0 0 14 16" fill="none" xmlns="http://www.w3.org/2000/svg">
<path d="M7.51832 0.208003C7.22882 -0.0694971 6.77132 -0.0694971 6.48182 0.208003L0.731816 5.708C0.510316 5.92 0.440316 6.245 0.554316 6.5295C0.668316 6.814 0.943316 7 1.24982 7H12.7498C13.0558 7 13.3318 6.8135 13.4463 6.5295C13.5603 6.2455 13.4898 5.92 13.2688 5.708L7.51832 0.208003ZM12.7498 9H1.24982C0.943316 9 0.667816 9.1865 0.553816 9.4705C0.439816 9.7545 0.510316 10.08 0.731316 10.292L6.48132 15.792C6.62632 15.9305 6.81282 16 6.99982 16C7.18682 16 7.37332 15.9305 7.51832 15.792L13.2683 10.292C13.4893 10.08 13.5598 9.755 13.4458 9.4705C13.3318 9.1865 13.0558 9 12.7498 9Z" fill="#637394"/>
</svg>
